<svg xmlns="http://www.w3.org/2000/svg" viewBox="0 0 512 512">
  <rect width="512" height="512" fill="#142033"/><rect x="54" y="221" width="404" height="76" rx="10" fill="#c9d0d5" stroke="#f2f5f7" stroke-width="8"/><g stroke="#293948" stroke-width="7"><path d="M82 221v48M112 221v31M142 221v48M172 221v31M202 221v48M232 221v31M262 221v48M292 221v31M322 221v48M352 221v31M382 221v48M412 221v31"/></g><rect x="211" y="159" width="166" height="103" rx="10" fill="#7692a7" stroke="#dcecf6" stroke-width="8"/><g stroke="#172633" stroke-width="6"><path d="M230 262v-43M246 262v-28M262 262v-43M278 262v-28M294 262v-43M310 262v-28M326 262v-43M342 262v-28M358 262v-43"/></g><path d="M254 114V171M254 114l-18 24M254 114l18 24" stroke="#ffcf59" stroke-width="10" stroke-linecap="round"/><path d="M54 335H458" stroke="#5a7287" stroke-width="18" stroke-linecap="round"/>
</svg>
